Alexis Texas is Buttwoman é um filme pornográfico produzido pela Elegant Angel. Lançado em 2008, é estrelado por Alexis Texas, Michael Stefano, Mr. Pete, Mick Blue, Mark Ashley, Gianna Michaels, Kristina Rose e Jenna Haze. O filme foi dirigido por William H. e venceu o XRCO Award de 2009 como o melhor filme do estilo Gonzo.1 Esse é o primeiro filme da série Buttwoman com Alexis Texas. Outras "Buttwomen" incluem Lauren Phoenix, Tianna Lynn, Brianna Love, e Belladonna.

Format                         : Matroska
Format version                 : Version 2
File size                      : 1.38 GiB
Duration                       : 3h 41mn
Overall bit rate               : 890 Kbps
Encoded date                   : UTC 2013-05-20 15:05:35
Writing application            : mkvmerge v5.8.0 ('No Sleep / Pillow') built on Sep  2 2012 15:37:04
Writing library                : libebml v1.2.3 + libmatroska v1.3.0

Video
ID                             : 1
Format                         : AVC
Format/Info                    : Advanced Video Codec
Format profile                 : High@L4.1
Format settings, CABAC         : Yes
Format settings, ReFrames      : 4 frames
Muxing mode                    : Header stripping
Codec ID                       : V_MPEG4/ISO/AVC
Duration                       : 3h 41mn
Bit rate                       : 680 Kbps
Width                          : 720 pixels
Height                         : 400 pixels
Display aspect ratio           : 16:9
Frame rate mode                : Constant
Frame rate                     : 23.976 fps
Color space                    : YUV
Chroma subsampling             : 4:2:0
Bit depth                      : 8 bits
Scan type                      : Progressive
Bits/(Pixel*Frame)             : 0.099
Stream size                    : 1.05 GiB (76%)
Title                          : Alexis Texas is Buttwoman ( by fantasma )
Writing library                : x264 core 130 r2273 b3065e6
Encoding settings              : cabac=1 / ref=3 / deblock=1:0:0 / analyse=0x3:0x113 / me=hex / subme=7 / psy=1 / psy_rd=1.00:0.00 / mixed_ref=1 / me_range=16 / chroma_me=1 / trellis=1 / 8x8dct=1 / cqm=0 / deadzone=21,11 / fast_pskip=1 / chroma_qp_offset=-2 / threads=3 / lookahead_threads=1 / sliced_threads=0 / nr=0 / decimate=1 / interlaced=0 / bluray_compat=0 / constrained_intra=0 / bframes=3 / b_pyramid=2 / b_adapt=1 / b_bias=0 / direct=1 / weightb=1 / open_gop=0 / weightp=2 / keyint=240 / keyint_min=23 / scenecut=40 / intra_refresh=0 / rc_lookahead=40 / rc=crf / mbtree=1 / crf=23.0 / qcomp=0.60 / qpmin=0 / qpmax=69 / qpstep=4 / vbv_maxrate=24000 / vbv_bufsize=24000 / crf_max=0.0 / nal_hrd=none / ip_ratio=1.40 / aq=1:1.00
Language                       : English
Default                        : Yes
Forced                         : No

Audio
ID                             : 2
Format                         : AC-3
Format/Info                    : Audio Coding 3
Mode extension                 : CM (complete main)
Format settings, Endianness    : Big
Muxing mode                    : Header stripping
Codec ID                       : A_AC3
Duration                       : 3h 41mn
Bit rate mode                  : Constant
Bit rate                       : 192 Kbps
Channel(s)                     : 2 channels
Channel positions              : Front: L R
Sampling rate                  : 48.0 KHz
Bit depth                      : 16 bits
Compression mode               : Lossy
Stream size                    : 304 MiB (22%)
Title                          : eng
Language                       : Portuguese
Default                        : Yes
Forced                         : No

Text
ID                             : 3
Format                         : UTF-8
Codec ID                       : S_TEXT/UTF8
Codec ID/Info                  : UTF-8 Plain Text
Title                          : Credito
Language                       : Portuguese
Default                        : Yes
Forced                         : No

Menu
00:00:00.000                   : en:Chapter 01
00:05:00.133                   : en:Chapter 02
00:09:59.633                   : en:Chapter 03
00:14:59.367                   : en:Chapter 04
00:19:59.235                   : en:Chapter 05
00:24:58.735                   : en:Chapter 06
00:29:58.235                   : en:Chapter 07
00:34:58.235                   : en:Chapter 08
00:39:57.735                   : en:Chapter 09
00:44:57.735                   : en:Chapter 10
00:49:57.235                   : en:Chapter 11
00:54:56.735                   : en:Chapter 12
00:59:56.603                   : en:Chapter 13
01:04:56.337                   : en:Chapter 14
01:09:55.837                   : en:Chapter 15
01:14:55.837                   : en:Chapter 16
01:19:55.337                   : en:Chapter 17
01:24:54.837                   : en:Chapter 18
01:29:54.837                   : en:Chapter 19
01:34:54.705                   : en:Chapter 20
01:39:53.939                   : en:Chapter 21
01:44:53.939                   : en:Chapter 22
01:46:33.280                   : en:Chapter 01
01:51:33.280                   : en:Chapter 02
01:56:32.780                   : en:Chapter 03
02:01:32.780                   : en:Chapter 04
02:06:32.280                   : en:Chapter 05
02:11:31.780                   : en:Chapter 06
02:16:31.913                   : en:Chapter 07
02:21:31.413                   : en:Chapter 08
02:26:30.913                   : en:Chapter 09
02:31:30.913                   : en:Chapter 10
02:36:30.413                   : en:Chapter 11
02:41:30.281                   : en:Chapter 12
02:46:29.781                   : en:Chapter 13
02:51:29.781                   : en:Chapter 14
02:56:29.148                   : en:Chapter 15
03:01:29.148                   : en:Chapter 16
03:06:28.515                   : en:Chapter 17
03:11:28.515                   : en:Chapter 18
03:16:28.015                   : en:Chapter 19
03:21:28.015                   : en:Chapter 20
03:26:27.515                   : en:Chapter 21
03:31:27.015                   : en:Chapter 22
03:36:27.015                   : en:Chapter 23

